<?xml version="1.0" encoding="UTF-8" standalone="no"?>
<!-- Created with Inkscape (http://www.inkscape.org/) -->

<svg
   width="420mm"
   height="297mm"
   viewBox="0 0 420 297"
   version="1.1"
   id="svg5"
   inkscape:version="1.2.2 (b0a8486541, 2022-12-01)"
   sodipodi:docname="lower-deck2-laser-cut.svg"
   xml:space="preserve"
   xmlns:inkscape="http://www.inkscape.org/namespaces/inkscape"
   xmlns:sodipodi="http://sodipodi.sourceforge.net/DTD/sodipodi-0.dtd"
   xmlns="http://www.w3.org/2000/svg"
   xmlns:svg="http://www.w3.org/2000/svg"><sodipodi:namedview
     id="namedview7"
     pagecolor="#ffffff"
     bordercolor="#000000"
     borderopacity="0.25"
     inkscape:showpageshadow="2"
     inkscape:pageopacity="0.0"
     inkscape:pagecheckerboard="0"
     inkscape:deskcolor="#d1d1d1"
     inkscape:document-units="mm"
     showgrid="false"
     inkscape:zoom="1.3779021"
     inkscape:cx="1180.4177"
     inkscape:cy="359.24179"
     inkscape:window-width="1854"
     inkscape:window-height="1131"
     inkscape:window-x="1986"
     inkscape:window-y="32"
     inkscape:window-maximized="1"
     inkscape:current-layer="layer1"><inkscape:grid
       type="xygrid"
       id="grid19131" /></sodipodi:namedview><defs
     id="defs2"><marker
       style="overflow:visible"
       id="Arrow3"
       refX="0"
       refY="0"
       orient="auto-start-reverse"
       inkscape:stockid="Arrow3"
       markerWidth="4.2071066"
       markerHeight="7"
       viewBox="0 0 4.2071068 7"
       inkscape:isstock="true"
       inkscape:collect="always"
       preserveAspectRatio="xMidYMid"><path
         style="fill:none;stroke:context-stroke;stroke-width:1;stroke-linecap:round"
         d="M 3,-3 0,0 3,3"
         id="arrow3"
         transform="rotate(180,0.125,0)"
         sodipodi:nodetypes="ccc" /></marker><marker
       style="overflow:visible"
       id="Arrow3-9"
       refX="0"
       refY="0"
       orient="auto-start-reverse"
       inkscape:stockid="Arrow3"
       markerWidth="4.2071066"
       markerHeight="7"
       viewBox="0 0 4.2071068 7"
       inkscape:isstock="true"
       inkscape:collect="always"
       preserveAspectRatio="xMidYMid"><path
         style="fill:none;stroke:context-stroke;stroke-width:1;stroke-linecap:round"
         d="M 3,-3 0,0 3,3"
         id="arrow3-2"
         transform="rotate(180,0.125,0)"
         sodipodi:nodetypes="ccc" /></marker><marker
       style="overflow:visible"
       id="Arrow3-2"
       refX="0"
       refY="0"
       orient="auto-start-reverse"
       inkscape:stockid="Arrow3"
       markerWidth="4.2071066"
       markerHeight="7"
       viewBox="0 0 4.2071068 7"
       inkscape:isstock="true"
       inkscape:collect="always"
       preserveAspectRatio="xMidYMid"><path
         style="fill:none;stroke:context-stroke;stroke-width:1;stroke-linecap:round"
         d="M 3,-3 0,0 3,3"
         id="arrow3-3"
         transform="rotate(180,0.125,0)"
         sodipodi:nodetypes="ccc" /></marker><marker
       style="overflow:visible"
       id="Arrow3-5"
       refX="0"
       refY="0"
       orient="auto-start-reverse"
       inkscape:stockid="Arrow3"
       markerWidth="4.2071066"
       markerHeight="7"
       viewBox="0 0 4.2071068 7"
       inkscape:isstock="true"
       inkscape:collect="always"
       preserveAspectRatio="xMidYMid"><path
         style="fill:none;stroke:context-stroke;stroke-width:1;stroke-linecap:round"
         d="M 3,-3 0,0 3,3"
         id="arrow3-9"
         transform="rotate(180,0.125,0)"
         sodipodi:nodetypes="ccc" /></marker><marker
       style="overflow:visible"
       id="Arrow3-28"
       refX="0"
       refY="0"
       orient="auto-start-reverse"
       inkscape:stockid="Arrow3"
       markerWidth="4.2071066"
       markerHeight="7"
       viewBox="0 0 4.2071068 7"
       inkscape:isstock="true"
       inkscape:collect="always"
       preserveAspectRatio="xMidYMid"><path
         style="fill:none;stroke:context-stroke;stroke-width:1;stroke-linecap:round"
         d="M 3,-3 0,0 3,3"
         id="arrow3-97"
         transform="rotate(180,0.125,0)"
         sodipodi:nodetypes="ccc" /></marker><marker
       style="overflow:visible"
       id="Arrow3-6"
       refX="0"
       refY="0"
       orient="auto-start-reverse"
       inkscape:stockid="Arrow3"
       markerWidth="4.2071066"
       markerHeight="7"
       viewBox="0 0 4.2071068 7"
       inkscape:isstock="true"
       inkscape:collect="always"
       preserveAspectRatio="xMidYMid"><path
         style="fill:none;stroke:context-stroke;stroke-width:1;stroke-linecap:round"
         d="M 3,-3 0,0 3,3"
         id="arrow3-1"
         transform="rotate(180,0.125,0)"
         sodipodi:nodetypes="ccc" /></marker><marker
       style="overflow:visible"
       id="Arrow3-6-3"
       refX="0"
       refY="0"
       orient="auto-start-reverse"
       inkscape:stockid="Arrow3"
       markerWidth="4.2071066"
       markerHeight="7"
       viewBox="0 0 4.2071068 7"
       inkscape:isstock="true"
       inkscape:collect="always"
       preserveAspectRatio="xMidYMid"><path
         style="fill:none;stroke:context-stroke;stroke-width:1;stroke-linecap:round"
         d="M 3,-3 0,0 3,3"
         id="arrow3-1-1"
         transform="rotate(180,0.125,0)"
         sodipodi:nodetypes="ccc" /></marker><marker
       style="overflow:visible"
       id="Arrow3-6-4"
       refX="0"
       refY="0"
       orient="auto-start-reverse"
       inkscape:stockid="Arrow3"
       markerWidth="4.2071066"
       markerHeight="7"
       viewBox="0 0 4.2071068 7"
       inkscape:isstock="true"
       inkscape:collect="always"
       preserveAspectRatio="xMidYMid"><path
         style="fill:none;stroke:context-stroke;stroke-width:1;stroke-linecap:round"
         d="M 3,-3 0,0 3,3"
         id="arrow3-1-7"
         transform="rotate(180,0.125,0)"
         sodipodi:nodetypes="ccc" /></marker><marker
       style="overflow:visible"
       id="Arrow3-6-4-4"
       refX="0"
       refY="0"
       orient="auto-start-reverse"
       inkscape:stockid="Arrow3"
       markerWidth="4.2071066"
       markerHeight="7"
       viewBox="0 0 4.2071068 7"
       inkscape:isstock="true"
       inkscape:collect="always"
       preserveAspectRatio="xMidYMid"><path
         style="fill:none;stroke:context-stroke;stroke-width:1;stroke-linecap:round"
         d="M 3,-3 0,0 3,3"
         id="arrow3-1-7-5"
         transform="rotate(180,0.125,0)"
         sodipodi:nodetypes="ccc" /></marker><marker
       style="overflow:visible"
       id="Arrow3-6-4-6"
       refX="0"
       refY="0"
       orient="auto-start-reverse"
       inkscape:stockid="Arrow3"
       markerWidth="4.2071066"
       markerHeight="7"
       viewBox="0 0 4.2071068 7"
       inkscape:isstock="true"
       inkscape:collect="always"
       preserveAspectRatio="xMidYMid"><path
         style="fill:none;stroke:context-stroke;stroke-width:1;stroke-linecap:round"
         d="M 3,-3 0,0 3,3"
         id="arrow3-1-7-3"
         transform="rotate(180,0.125,0)"
         sodipodi:nodetypes="ccc" /></marker></defs><g
     inkscape:label="Layer 1"
     inkscape:groupmode="layer"
     id="layer1"><path
       id="rect111"
       style="fill:none;stroke:#ff0000;stroke-width:0.0312521;stroke-linejoin:miter;stroke-dasharray:none;stroke-opacity:1"
       d="M 40.281262,11 C 27.365038,11 16.38979,18.290822 12.02924,30.008504 h 42.98704 c 2.770399,0 5.000728,1.0286 5.000728,2.306319 V 92.68484 c 0,1.277722 -2.230329,2.306319 -5.000728,2.306319 H 11 v 90.017681 h 44.015763 c 2.770386,0 5.000729,1.0286 5.000729,2.30632 v 60.36998 c 0,1.27773 -2.230343,2.30632 -5.000729,2.30632 H 40 c 0.108265,22.11853 -0.668857,23.99254 5,23.99254 h 312.71873 c 16.76701,0 29.26627,-12.94261 29.26627,-30.26193 V 41.278101 C 386.985,23.958805 374.48574,11 357.71873,11 H 95.014355 v 10.262663 c 0,0.678791 -0.01183,2.275349 -0.01435,1.861902 0,0 0.0031,0.574272 0,0.878499 l -0.49104,47.499032 c -0.02148,2.077802 -2.230417,3.750675 -5.000728,3.750675 H 84.50957 c -2.770311,0 -5.000728,-1.672762 -5.000728,-3.750675 V 25.013338 h -9.497095 c -2.770305,0 -5.000728,-1.672766 -5.000728,-3.750675 V 11 Z"
       sodipodi:nodetypes="scssssccsssscssssscscssssscsscs" /><circle
       style="fill:none;stroke:#ff0000;stroke-width:0.0254;stroke-linejoin:miter;stroke-dasharray:none;stroke-opacity:1"
       id="path6146"
       cx="105.5127"
       cy="15.0127"
       r="1.5" /><circle
       style="fill:none;stroke:#ff0000;stroke-width:0.0254;stroke-linejoin:miter;stroke-dasharray:none;stroke-opacity:1"
       id="path6146-3"
       cx="295.5127"
       cy="15.0127"
       r="1.5" /><circle
       style="fill:none;stroke:#ff0000;stroke-width:0.0254;stroke-linejoin:miter;stroke-dasharray:none;stroke-opacity:1"
       id="path6146-9"
       cx="51.512699"
       cy="15.0127"
       r="1.5" /><circle
       style="fill:none;stroke:#ff0000;stroke-width:0.0254;stroke-linejoin:miter;stroke-dasharray:none;stroke-opacity:1"
       id="path6146-3-0"
       cx="321.5127"
       cy="15.0127"
       r="1.5" /><circle
       style="fill:none;stroke:#ff0000;stroke-width:0.0254;stroke-linejoin:miter;stroke-dasharray:none;stroke-opacity:1"
       id="path6146-9-8"
       cx="51.512699"
       cy="266.5127"
       r="1.5" /><circle
       style="fill:none;stroke:#ff0000;stroke-width:0.0254;stroke-linejoin:miter;stroke-dasharray:none;stroke-opacity:1"
       id="path6146-3-0-8"
       cx="341.5127"
       cy="266.5127"
       r="1.5" /><circle
       style="fill:none;stroke:#ff0000;stroke-width:0.0254;stroke-linejoin:miter;stroke-dasharray:none;stroke-opacity:1"
       id="path6146-93-1"
       cx="26.012699"
       cy="145.0127"
       r="1.5" /><g
       style="fill:#000000;fill-opacity:1;stroke:#000000;stroke-linecap:round;stroke-linejoin:round;stroke-opacity:1"
       transform="translate(-374.68162,93.123577)"
       id="g13368" /><g
       style="fill:none;stroke:#000000;stroke-width:0.3;stroke-linecap:round;stroke-linejoin:round;stroke-opacity:1"
       id="g15804"
       transform="translate(-374.68162,93.123577)"><text
         x="300.98901"
         y="267.7522"
         textLength="0.89999998"
         font-size="2px"
         lengthAdjust="spacingAndGlyphs"
         text-anchor="start"
         opacity="0"
         stroke-opacity="0"
         id="text15798" /><g
         class="stroked-text"
         id="g15802"><desc
           id="desc15800" /></g></g><g
       style="fill:none;stroke:#000000;stroke-width:0.15;stroke-linecap:round;stroke-linejoin:round;stroke-opacity:1"
       id="g15812"
       transform="translate(-374.68162,93.123577)"><text
         x="300.98901"
         y="264.7522"
         textLength="0.44999999"
         font-size="2px"
         lengthAdjust="spacingAndGlyphs"
         text-anchor="start"
         opacity="0"
         stroke-opacity="0"
         id="text15806" /><g
         class="stroked-text"
         id="g15810"><desc
           id="desc15808" /></g></g><g
       style="fill:none;stroke:#000000;stroke-width:0.15;stroke-linecap:round;stroke-linejoin:round;stroke-opacity:1"
       id="g15820"
       transform="translate(-374.68162,93.123577)"><text
         x="300.98901"
         y="261.7522"
         textLength="0.44999999"
         font-size="2px"
         lengthAdjust="spacingAndGlyphs"
         text-anchor="start"
         opacity="0"
         stroke-opacity="0"
         id="text15814" /><g
         class="stroked-text"
         id="g15818"><desc
           id="desc15816" /></g></g><g
       style="fill:none;stroke:#000000;stroke-width:0.15;stroke-linecap:round;stroke-linejoin:round;stroke-opacity:1"
       id="g15828"
       transform="translate(-374.68162,93.123577)"><text
         x="300.98901"
         y="258.7522"
         textLength="0.44999999"
         font-size="2px"
         lengthAdjust="spacingAndGlyphs"
         text-anchor="start"
         opacity="0"
         stroke-opacity="0"
         id="text15822" /><g
         class="stroked-text"
         id="g15826"><desc
           id="desc15824" /></g></g><g
       style="fill:none;stroke:#000000;stroke-width:0.15;stroke-linecap:round;stroke-linejoin:round;stroke-opacity:1"
       id="g15836"
       transform="translate(-374.68162,93.123577)"><text
         x="300.98901"
         y="255.7522"
         textLength="0.44999999"
         font-size="2px"
         lengthAdjust="spacingAndGlyphs"
         text-anchor="start"
         opacity="0"
         stroke-opacity="0"
         id="text15830" /><g
         class="stroked-text"
         id="g15834"><desc
           id="desc15832" /></g></g><path
       id="rect3595-8"
       style="fill:none;stroke:#ff0000;stroke-width:0.0265148;stroke-dasharray:none;stroke-opacity:1"
       d="m 236.851,81.911 c -2.90867,0 -5.251,2.314423 -5.251,5.189 v 89.61273 c 0,2.87458 0.34233,5.18883 3.251,5.18883 h 104.48953 c 0.0509,0 0.10031,-0.006 0.15089,-0.007 0.17087,0.0131 0.34475,0.0196 0.52038,0.0196 h 19.99878 c 2.77031,0 5.00022,-1.67276 5.00022,-3.75067 V 100.662 c 0,-2.07791 -2.22991,-3.751 -5.00022,-3.751 H 319.591 V 87.1 c 0,-2.874577 -2.34134,-5.189 -5.25,-5.189 z"
       sodipodi:nodetypes="ssssscssssscsss" /><rect
       style="fill:none;stroke:#ff0000;stroke-width:0.0220005;stroke-dasharray:none;stroke-opacity:1"
       id="rect5113-8"
       width="50.002998"
       height="15.002999"
       x="130.011"
       y="120.011"
       rx="5.0005665"
       ry="3.7507498" /><rect
       style="fill:none;stroke:#ff0000;stroke-width:0.0127019;stroke-dasharray:none;stroke-opacity:1"
       id="rect5113-8-4-5"
       width="15.009298"
       height="19.987299"
       x="79.504356"
       y="100.00636"
       rx="5.0036664"
       ry="5" /><circle
       style="fill:none;stroke:#ff0000;stroke-width:0.0254;stroke-linejoin:miter;stroke-dasharray:none;stroke-opacity:1"
       id="path6146-3-3"
       cx="157.5127"
       cy="14.0127"
       r="1.5" /><circle
       style="fill:none;stroke:#ff0000;stroke-width:0.0254;stroke-linejoin:miter;stroke-dasharray:none;stroke-opacity:1"
       id="path6146-3-3-6"
       cx="157.5127"
       cy="108.0127"
       r="1.5" /><circle
       style="fill:none;stroke:#ff0000;stroke-width:0.0254;stroke-linejoin:miter;stroke-dasharray:none;stroke-opacity:1"
       id="path6146-3-3-1"
       cx="227.5127"
       cy="14.0127"
       r="1.5" /><circle
       style="fill:none;stroke:#ff0000;stroke-width:0.0254;stroke-linejoin:miter;stroke-dasharray:none;stroke-opacity:1"
       id="path6146-3-3-6-0"
       cx="227.5127"
       cy="108.0127"
       r="1.5" /><circle
       style="fill:none;stroke:#ff0000;stroke-width:0.0254;stroke-linejoin:miter;stroke-dasharray:none;stroke-opacity:1"
       id="path6146-5"
       cx="105.5127"
       cy="266.5127"
       r="1.5" /><circle
       style="fill:none;stroke:#ff0000;stroke-width:0.0254;stroke-linejoin:miter;stroke-dasharray:none;stroke-opacity:1"
       id="path6146-3-5"
       cx="295.5127"
       cy="266.5127"
       r="1.5" /><circle
       style="fill:none;stroke:#ff0000;stroke-width:0.0254;stroke-linejoin:miter;stroke-dasharray:none;stroke-opacity:1"
       id="path6146-93-1-0-1-5"
       cx="382.5127"
       cy="155.0127"
       r="1.5" /><circle
       style="fill:none;stroke:#ff0000;stroke-width:0.0254;stroke-linejoin:miter;stroke-dasharray:none;stroke-opacity:1"
       id="path6146-93-1-0-1-9-0"
       cx="382.5127"
       cy="244.5127"
       r="1.5" /><circle
       style="fill:none;stroke:#ff0000;stroke-width:0.0254;stroke-linejoin:miter;stroke-dasharray:none;stroke-opacity:1"
       id="path6146-93-1-0-1-9-0-9"
       cx="382.5127"
       cy="230.5127"
       r="1.5" /><rect
       style="fill:none;stroke:#ff0000;stroke-width:0.0220005;stroke-dasharray:none;stroke-opacity:1"
       id="rect5113-8-0"
       width="50.002998"
       height="15.002999"
       x="190.011"
       y="270.01099"
       rx="5.0005665"
       ry="3.7507498" /><text
       xml:space="preserve"
       style="font-size:3.175px;fill:#0000ff;stroke:#0000ff;stroke-width:0.125;stroke-dasharray:none"
       x="130.74988"
       y="51.237034"
       id="text5223"><tspan
         sodipodi:role="line"
         id="tspan5221"
         style="stroke-width:0.125;stroke-dasharray:none"
         x="130.74988"
         y="51.237034">Floppy drive goes here</tspan><tspan
         sodipodi:role="line"
         style="stroke-width:0.125;stroke-dasharray:none"
         x="130.74988"
         y="55.205784"
         id="tspan5755">&lt;- cable end / back of drive</tspan><tspan
         sodipodi:role="line"
         style="stroke-width:0.125;stroke-dasharray:none"
         x="130.74988"
         y="59.174534"
         id="tspan5757">front of drive -&gt;</tspan></text><text
       xml:space="preserve"
       style="font-size:3.175px;fill:#0000ff;stroke:#0000ff;stroke-width:0.025;stroke-dasharray:none"
       x="161.06032"
       y="26.266054"
       id="text5761"><tspan
         sodipodi:role="line"
         id="tspan5759"
         style="stroke-width:0.025;stroke-dasharray:none"
         x="161.06032"
         y="26.266054">12mm M3 screw + 5mm nylon spacer</tspan><tspan
         sodipodi:role="line"
         style="stroke-width:0.025;stroke-dasharray:none"
         x="161.06032"
         y="30.234804"
         id="tspan5763">both from behind. Screws into bottom</tspan><tspan
         sodipodi:role="line"
         style="stroke-width:0.025;stroke-dasharray:none"
         x="161.06032"
         y="34.203556"
         id="tspan5765">of floppy drive</tspan></text><path
       style="fill:#0000ff;stroke:#0000ff;stroke-width:0.225;stroke-dasharray:none;stroke-opacity:1;marker-end:url(#Arrow3)"
       d="m 161.98213,23.370845 -3.00818,-6.813284"
       id="path857"
       sodipodi:nodetypes="cc" /><path
       style="fill:#0000ff;stroke:#0000ff;stroke-width:0.225;stroke-dasharray:none;stroke-opacity:1;marker-end:url(#Arrow3-9)"
       d="m 217.64315,24.004439 8.0744,-7.217548"
       id="path857-0"
       sodipodi:nodetypes="cc" /><path
       style="fill:#0000ff;stroke:#0000ff;stroke-width:0.225;stroke-dasharray:none;stroke-opacity:1;marker-end:url(#Arrow3-2)"
       d="m 203.85349,36.190863 21.45747,67.356707"
       id="path857-7"
       sodipodi:nodetypes="cc" /><path
       style="fill:#0000ff;stroke:#0000ff;stroke-width:0.225;stroke-dasharray:none;stroke-opacity:1;marker-end:url(#Arrow3-5)"
       d="M 195.12942,35.708683 159.81495,102.6031"
       id="path857-2"
       sodipodi:nodetypes="cc" /><text
       xml:space="preserve"
       style="font-size:3.175px;fill:#0000ff;stroke:#0000ff;stroke-width:0.025;stroke-dasharray:none"
       x="116.69872"
       y="68.139877"
       id="text6075"><tspan
         sodipodi:role="line"
         id="tspan6073"
         style="stroke-width:0.025"
         x="116.69872"
         y="68.139877">Floppy data cable tucks</tspan><tspan
         sodipodi:role="line"
         style="stroke-width:0.025"
         x="116.69872"
         y="72.108627"
         id="tspan6077">through here</tspan></text><text
       xml:space="preserve"
       style="font-size:3.175px;fill:#0000ff;stroke:#0000ff;stroke-width:0.025;stroke-dasharray:none"
       x="113.92563"
       y="96.138199"
       id="text6081"><tspan
         sodipodi:role="line"
         id="tspan6079"
         style="stroke-width:0.025"
         x="113.92563"
         y="96.138199">Floppy power cable tucks</tspan><tspan
         sodipodi:role="line"
         style="stroke-width:0.025"
         x="113.92563"
         y="100.10695"
         id="tspan6083">through here</tspan></text><path
       style="fill:#0000ff;stroke:#0000ff;stroke-width:0.225;stroke-dasharray:none;stroke-opacity:1;marker-end:url(#Arrow3-28)"
       d="M 114.45228,66.789912 97.385421,58.80854"
       id="path857-3"
       sodipodi:nodetypes="cc" /><path
       style="fill:#0000ff;stroke:#0000ff;stroke-width:0.225;stroke-dasharray:none;stroke-opacity:1;marker-end:url(#Arrow3-6)"
       d="M 111.02019,98.170466 97.320655,107.91595"
       id="path857-29"
       sodipodi:nodetypes="cc" /><text
       xml:space="preserve"
       style="font-size:3.175px;fill:#0000ff;stroke:#0000ff;stroke-width:0.025;stroke-dasharray:none"
       x="12.291482"
       y="215.37498"
       id="text10174"><tspan
         sodipodi:role="line"
         id="tspan10172"
         style="stroke-width:0.025"
         x="12.291482"
         y="215.37498">12mm M3 screw from behind,</tspan><tspan
         sodipodi:role="line"
         style="stroke-width:0.025"
         x="12.291482"
         y="219.34373"
         id="tspan10176">25mm metal threaded hex</tspan><tspan
         sodipodi:role="line"
         style="stroke-width:0.025"
         x="12.291482"
         y="223.31248"
         id="tspan10178">spacer above</tspan></text><path
       style="fill:#0000ff;stroke:#0000ff;stroke-width:0.225;stroke-dasharray:none;stroke-opacity:1;marker-end:url(#Arrow3-6-3)"
       d="m 14.016306,211.37872 7.447562,-24.64428"
       id="path857-29-9"
       sodipodi:nodetypes="cc" /><path
       style="fill:#0000ff;stroke:#0000ff;stroke-width:0.225;stroke-dasharray:none;stroke-opacity:1;marker-end:url(#Arrow3-6-4)"
       d="M 40.240139,221.79929 58.108925,238.2039"
       id="path857-29-8"
       sodipodi:nodetypes="cc" /><text
       xml:space="preserve"
       style="font-size:3.175px;fill:#0000ff;stroke:#0000ff;stroke-width:0.025;stroke-dasharray:none"
       x="252.23149"
       y="239.80156"
       id="text10174-0"><tspan
         sodipodi:role="line"
         id="tspan10172-3"
         style="stroke-width:0.025"
         x="252.23149"
         y="239.80156">12mm M3 screw from behind,</tspan><tspan
         sodipodi:role="line"
         style="stroke-width:0.025"
         x="252.23149"
         y="243.77031"
         id="tspan10176-6">25mm metal threaded hex</tspan><tspan
         sodipodi:role="line"
         style="stroke-width:0.025"
         x="252.23149"
         y="247.73906"
         id="tspan10178-1">spacer above</tspan></text><path
       style="fill:#0000ff;stroke:#0000ff;stroke-width:0.225;stroke-dasharray:none;stroke-opacity:1;marker-end:url(#Arrow3-6-4-4)"
       d="m 275.32065,246.39998 17.86878,16.4046"
       id="path857-29-8-0"
       sodipodi:nodetypes="cc" /><text
       xml:space="preserve"
       style="font-size:3.175px;fill:#0000ff;stroke:#0000ff;stroke-width:0.025;stroke-dasharray:none"
       x="110.66508"
       y="25.090538"
       id="text10174-2"><tspan
         sodipodi:role="line"
         id="tspan10172-0"
         style="stroke-width:0.025"
         x="110.66508"
         y="25.090538">M3x15 from behind,</tspan><tspan
         sodipodi:role="line"
         style="stroke-width:0.025"
         x="110.66508"
         y="29.059288"
         id="tspan10176-61">25mm metal threaded hex</tspan><tspan
         sodipodi:role="line"
         style="stroke-width:0.025"
         x="110.66508"
         y="33.028038"
         id="tspan10178-5">spacer above</tspan></text><path
       style="fill:#0000ff;stroke:#0000ff;stroke-width:0.225;stroke-dasharray:none;stroke-opacity:1;marker-end:url(#Arrow3-6-4-6)"
       d="m 115.26032,21.776145 -6.14278,-4.520213"
       id="path857-29-8-5"
       sodipodi:nodetypes="cc" /><g
       id="#3b3b3bff-5"
       style="fill:#0000ff;fill-opacity:1"
       transform="matrix(0.0316833,0,0,0.0316833,309.16438,19.152955)"><path
         fill="#3b3b3b"
         opacity="1"
         d="m 195.64,42.66 c 6.1,-0.74 12.23,-1.35 18.38,-1.16 527.66,0 1055.32,0 1582.99,0 42.07,-1.01 84.18,13.97 116.59,40.74 31.06,25.4 52.61,62.09 59.91,101.54 7.93,41.53 -0.79,85.82 -23.32,121.54 -20.5,33.12 -52.67,58.6 -89.23,71.81 -21.36,7.82 -44.24,11.37 -66.95,10.87 C 1270,388 745.99,388 221.98,388 178.87,389.08 135.49,374.23 102.39,346.5 62.73,313.84 38.88,262.48 40.49,211.02 40.98,168.52 58.75,126.71 88.13,96.12 116.31,66.53 155.11,47.47 195.64,42.66 m 564.67,86.49 c -8.19,1.51 -16.57,3.21 -23.92,7.29 -6.85,3.8 -10.13,11.44 -12.37,18.57 -4.34,14.58 -5.39,29.88 -6.04,45 -0.53,21.18 -0.56,42.52 2.74,63.5 1.67,9.52 3.76,19.36 9.25,27.49 5.11,7.56 14.54,9.91 22.88,11.95 22.37,4.71 45.34,5.27 68.11,5.78 28.06,0 56.18,0.36 84.14,-2.23 10.81,-0.94 22.11,-3.65 30.35,-11.15 7.25,-6.39 10.95,-15.87 12.09,-25.3 2.82,-22.02 2.54,-44.27 2.85,-66.42 -41.05,-0.01 -82.09,0 -123.14,-0.01 -0.01,13.42 0,26.84 0,40.25 22.68,0.02 45.36,0 68.05,0.01 -0.33,4.7 -0.48,9.9 -3.6,13.72 -2.6,3.19 -7.03,3.2 -10.75,3.64 -15.61,1.21 -31.29,1.14 -46.93,1.13 -12.74,0.06 -25.5,-0.16 -38.16,-1.58 -4.61,-0.62 -9.32,-1.21 -13.61,-3.1 -4.56,-2.05 -5.99,-7.35 -7.1,-11.78 -2.7,-12.77 -2.38,-25.93 -2.15,-38.9 0.54,-8.87 0.84,-18.13 4.58,-26.34 1.93,-4.77 7.36,-6.07 11.9,-6.96 11.38,-2.04 22.98,-2.31 34.52,-2.57 18.02,0.01 36.07,-0.27 54.06,1.03 3.59,0.41 7.39,0.43 10.73,1.99 4.5,2.58 5.56,8.13 6.27,12.83 18.41,0.01 36.82,0.02 55.23,0 -0.38,-12.61 -1.41,-25.49 -6.07,-37.34 -2.81,-7.13 -7.72,-13.99 -15.09,-16.86 -8.3,-3.23 -17.24,-4.27 -26.02,-5.35 -27.28,-2.84 -54.76,-2.78 -82.16,-2.67 -20.26,0.39 -40.61,1.09 -60.64,4.38 m 696.97,1.11 c -6.84,1.91 -14.46,4.29 -18.48,10.61 -4.56,7.2 -6.32,15.73 -7.83,24 -2.32,14.26 -2.99,28.73 -3.22,43.15 -0.08,22.34 -0.07,45 5.25,66.83 2.32,8.49 5.53,17.96 13.62,22.6 8.2,4.4 17.55,5.88 26.64,7.35 26.75,3.67 53.82,3.79 80.77,3.69 12.03,-0.25 24.08,-0.83 35.98,-2.73 6.79,-1.17 13.69,-2.61 19.82,-5.9 6.77,-3.68 10.81,-10.78 13.13,-17.89 4.04,-12.57 4.28,-25.96 3.97,-39.05 -0.44,-9.36 -1.58,-18.87 -5.16,-27.61 -2.44,-6.01 -6.46,-11.61 -12.2,-14.83 -6.76,-3.8 -14.45,-5.47 -22.01,-6.79 -14.38,-2.29 -28.98,-2.78 -43.52,-2.7 -12.43,-0.05 -24.89,0.34 -37.23,1.81 -9.68,1.21 -19.58,3.25 -27.84,8.72 0.25,-8.57 -0.35,-17.45 2.59,-25.65 0.97,-2.96 3.36,-5.35 6.46,-6.01 8.8,-2.29 17.99,-2.33 27.03,-2.49 15.02,0.01 30.08,-0.15 45.05,1.22 4.49,0.5 9.53,1.01 12.81,4.5 2.11,2.06 2.56,5.1 2.85,7.91 17.08,0 34.16,0 51.24,0 0.07,-10.07 -0.49,-20.25 -3.08,-30.02 -1.84,-6.74 -5.1,-14.01 -11.79,-17.12 -7.74,-3.61 -16.3,-4.86 -24.66,-6.08 -25.37,-3.15 -50.99,-3.15 -76.51,-2.99 -17.97,0.5 -36.15,1.13 -53.68,5.47 m -954.53,-3.13 c 0,59.62 0,119.24 0,178.87 64.21,0 128.42,0 192.63,0 -0.01,-14.42 0,-28.83 -0.01,-43.25 -45.87,-0.01 -91.74,0.01 -137.62,-0.01 0,-8.16 0,-16.32 0,-24.48 30.58,-0.02 61.16,0 91.75,-0.01 0,-14.38 0,-28.75 0,-43.12 -30.58,-0.02 -61.16,0 -91.75,-0.01 0,-8.21 0,-16.41 0,-24.61 45.88,-0.02 91.75,0 137.63,-0.01 0,-14.46 -0.01,-28.92 0,-43.37 -64.21,-0.01 -128.42,-0.01 -192.63,0 m 537.67,0.25 c -29.45,59.56 -59.01,119.07 -88.51,178.6 21.49,0.03 42.98,0.02 64.47,0.01 5.65,-9.92 11.31,-19.83 16.96,-29.74 36.29,0.02 72.57,-0.03 108.85,0.02 5.64,9.93 11.33,19.83 17.01,29.73 21.46,-0.01 42.92,0.02 64.38,-0.01 -29.48,-59.55 -59.06,-119.04 -88.49,-178.61 -31.56,-0.02 -63.12,-0.01 -94.67,0 m 139.41,0.13 c 5.14,10.32 10.17,20.7 15.38,31 63.43,-0.02 126.86,0.01 190.29,-0.02 0,-10.33 0,-20.65 -0.01,-30.98 -68.55,-0.02 -137.11,-0.01 -205.66,0 M 1650,127.12 c 0,35.88 0,71.75 0,107.63 16.57,0.02 33.14,-0.03 49.71,0.03 0.26,-3.12 0.74,-6.75 3.63,-8.6 3.17,-1.88 7.04,-1.64 10.6,-2 17.99,-0.83 36,-0.82 54,-0.45 8.2,0.36 16.53,0.22 24.58,2.07 4.83,1.45 6.24,7.05 6.8,11.47 0.51,7.1 0.97,14.93 -2.76,21.31 -2.51,4.17 -7.81,4.59 -12.14,5.2 -16.07,1.71 -32.26,1.32 -48.39,1.31 -9.78,-0.36 -19.7,-0.01 -29.33,-1.98 -4.61,-0.99 -6.13,-6.04 -6.72,-10.1 -16.66,-0.02 -33.32,-0.01 -49.98,-0.01 0.09,9.82 -0.58,19.94 2.49,29.42 2.27,7.21 7.4,13.54 14.23,16.88 8.11,3.94 17.17,5.21 26.01,6.43 22.98,2.72 46.16,2.89 69.28,2.74 19.58,-0.47 39.31,-1.09 58.55,-5.08 7.33,-1.72 15.15,-3.72 20.68,-9.17 6.15,-6.04 9.17,-14.46 11.01,-22.69 2.75,-12.77 2.79,-25.93 2.28,-38.93 -0.76,-11.11 -2.02,-22.67 -7.5,-32.58 -2.92,-5.4 -8.01,-9.51 -13.97,-11.03 -14.31,-4.05 -29.31,-4.52 -44.07,-5.2 -18.91,-0.46 -37.91,-0.8 -56.73,1.36 -11.59,1.44 -23.38,3.57 -33.77,9.16 0.02,-9.02 -0.01,-18.04 0.01,-27.06 48.75,0 97.5,0 146.25,0 0,-13.38 -0.01,-26.75 0,-40.12 -64.92,-0.01 -129.83,0 -194.75,-0.01 m -1469,0.63 c 0,59.5 0,119 0,178.5 18.38,0 36.75,0 55.12,0 0.04,-46.83 -0.05,-93.65 0.04,-140.47 5.53,11.38 11.44,22.56 17.22,33.81 18.34,35.55 36.66,71.12 55.02,106.66 15.07,0 30.14,0 45.21,0 20.73,-43.16 41.43,-86.34 62.15,-129.51 1.68,-3.51 3.04,-7.17 5.15,-10.46 0.21,46.66 0.03,93.31 0.09,139.97 18.33,0 36.66,0 55,0 0,-59.5 0,-119 0,-178.5 -31.28,0 -62.55,0 -93.83,0 -17.05,36.36 -34.03,72.75 -51.21,109.04 -17.09,-36.32 -34.07,-72.7 -51.13,-109.04 -32.95,0 -65.89,0 -98.83,0 m 1023.09,48.75 c 5.04,10.36 10.21,20.66 15.29,31 55.37,0 110.74,0.01 166.11,-0.01 0.01,-10.33 0.01,-20.65 0,-30.98 -60.47,-0.02 -120.93,-0.01 -181.4,-0.01 m 24.18,49.01 c 5.16,10.31 10.19,20.68 15.36,30.99 47.29,0 94.58,0 141.87,0 0,-10.34 0,-20.67 0,-31 -52.41,0 -104.82,-0.01 -157.23,0.01 m 24.5,49.5 c 5.09,10.34 10.21,20.65 15.31,30.99 39.14,0 78.28,0.01 117.42,-0.01 0,-10.33 0,-20.65 0,-30.98 -44.24,-0.02 -88.49,-0.02 -132.73,0 z"
         id="path30358-9"
         style="fill:#0000ff;fill-opacity:1" /><path
         fill="#3b3b3b"
         opacity="1"
         d="m 1083.56,167.89 c 2.8,-0.02 5.61,-0.02 8.43,-0.01 9.87,20.67 19.72,41.34 29.62,62 -22.57,-0.01 -45.14,-0.02 -67.71,0 9.88,-20.66 19.79,-41.31 29.66,-61.99 z"
         id="path30360-7"
         style="fill:#0000ff;fill-opacity:1" /><path
         fill="#3b3b3b"
         opacity="1"
         d="m 1493.52,234.84 c 15.1,-1.59 30.31,-1.18 45.48,-1.18 9.15,0.31 18.42,0.24 27.42,2.13 4.47,0.8 7.67,4.81 8.33,9.17 0.74,4.88 0.77,10.41 -2.22,14.59 -2.67,3.6 -7.41,4.36 -11.54,4.95 -15.28,1.8 -30.69,1.32 -46.03,1.34 -9.16,-0.33 -18.44,-0.22 -27.43,-2.19 -4.29,-0.8 -7.31,-4.64 -7.99,-8.81 -0.86,-5.23 -0.88,-11.3 2.68,-15.6 2.75,-3.32 7.29,-3.9 11.3,-4.4 z"
         id="path30362-7"
         style="fill:#0000ff;fill-opacity:1" /></g><circle
       style="fill:none;stroke:#ff0000;stroke-width:0.0127019"
       id="path26951-1-5"
       cx="338.51236"
       cy="67.006348"
       r="14" /><text
       xml:space="preserve"
       style="font-style:normal;font-variant:normal;font-weight:bold;font-stretch:normal;font-size:6.35px;font-family:sans-serif;-inkscape-font-specification:'sans-serif Bold';fill:#0000ff;fill-opacity:1;stroke:#0000ff;stroke-width:0.0309999;stroke-dasharray:none;stroke-opacity:1"
       x="357.78864"
       y="68.463013"
       id="text28716"><tspan
         sodipodi:role="line"
         id="tspan28714"
         style="font-size:6.35px;stroke-width:0.031"
         x="357.78864"
         y="68.463013">ISOLATE</tspan></text><text
       xml:space="preserve"
       style="font-style:normal;font-variant:normal;font-weight:bold;font-stretch:normal;font-size:6.35px;font-family:sans-serif;-inkscape-font-specification:'sans-serif Bold';fill:#0000ff;fill-opacity:1;stroke:#0000ff;stroke-width:0.0309999;stroke-dasharray:none;stroke-opacity:1"
       x="327.50626"
       y="91.182861"
       id="text28716-1"><tspan
         sodipodi:role="line"
         id="tspan28714-2"
         style="font-size:6.35px;stroke-width:0.031"
         x="327.50626"
         y="91.182861">ENGAGE</tspan></text><text
       xml:space="preserve"
       style="font-style:normal;font-variant:normal;font-weight:bold;font-stretch:normal;font-size:7.76111px;font-family:sans-serif;-inkscape-font-specification:'sans-serif Bold';text-align:center;text-anchor:middle;fill:#0000ff;fill-opacity:1;stroke:#0000ff;stroke-width:0.0309999;stroke-dasharray:none;stroke-opacity:1"
       x="340.67148"
       y="39.115803"
       id="text28716-8"><tspan
         sodipodi:role="line"
         id="tspan28714-9"
         style="font-size:7.76111px;text-align:center;text-anchor:middle;stroke-width:0.031"
         x="340.67148"
         y="39.115803">MASTER POWER</tspan><tspan
         sodipodi:role="line"
         style="font-size:7.76111px;text-align:center;text-anchor:middle;stroke-width:0.031"
         x="340.67148"
         y="48.817188"
         id="tspan36704">RELAY</tspan></text><g
       id="g37063"
       transform="translate(16.486816,3.6231685)"><text
         xml:space="preserve"
         style="font-style:normal;font-variant:normal;font-weight:bold;font-stretch:normal;font-size:4.23333px;font-family:sans-serif;-inkscape-font-specification:'sans-serif Bold';fill:#0000ff;fill-opacity:1;stroke:#0000ff;stroke-width:0.0309999;stroke-dasharray:none;stroke-opacity:1"
         x="256.06635"
         y="56.104614"
         id="text28716-3"><tspan
           sodipodi:role="line"
           id="tspan28714-6"
           style="font-size:4.23333px;stroke-width:0.031"
           x="256.06635"
           y="56.104614">IMPORTANT:</tspan><tspan
           sodipodi:role="line"
           style="font-weight:normal;font-size:4.23333px;stroke-width:0.031"
           x="256.06635"
           y="61.396278"
           id="tspan36745">ISOLATE AND REMOVE</tspan><tspan
           sodipodi:role="line"
           style="font-weight:normal;font-size:4.23333px;stroke-width:0.031"
           x="256.06635"
           y="66.687943"
           id="tspan36759">MASTER KEY PRIOR TO</tspan><tspan
           sodipodi:role="line"
           style="font-weight:normal;font-size:4.23333px;stroke-width:0.031"
           x="256.06635"
           y="71.979599"
           id="tspan36919">AIR TRAVEL</tspan></text><rect
         style="fill:none;stroke:#0000ff;stroke-width:0.025;stroke-dasharray:none"
         id="rect36813"
         width="50.935921"
         height="27.101881"
         x="252.87352"
         y="48.799618"
         rx="0"
         ry="0" /></g></g></svg>
